<svg width="264" height="264" viewBox="0 0 264 264" fill="none" xmlns="http://www.w3.org/2000/svg">
<path d="M0 20C0 8.95431 8.95431 0 20 0H108C119.046 0 128 8.95431 128 20V128H20C8.95431 128 0 119.046 0 108V20Z" fill="#475569"/>
<g clip-path="url(#clip0_30_8707)">
<path fill-rule="evenodd" clip-rule="evenodd" d="M63.0667 36.0965C62.4572 36.2123 61.9065 36.5355 61.5081 37.0112C60.8921 37.82 60.9201 37.2009 60.9201 49.6423V60.9169L49.4556 60.9418L37.9943 60.9667L37.4436 61.2467C37.144 61.3959 36.877 61.6031 36.658 61.8562C36.4391 62.1093 36.2725 62.4034 36.1681 62.7214C36.0125 63.2285 36.0125 64.7716 36.1681 65.2787C36.2725 65.5967 36.4391 65.8908 36.658 66.1439C36.877 66.397 37.144 66.6042 37.4436 66.7534L37.9943 67.0334L49.4556 67.0583L60.9169 67.0832L60.9418 78.5445L60.9667 90.0058L61.2467 90.5565C61.3959 90.8561 61.6031 91.1231 61.8562 91.3421C62.1093 91.561 62.4034 91.7276 62.7214 91.832C63.2285 91.9876 64.7716 91.9876 65.2787 91.832C65.5967 91.7276 65.8908 91.561 66.1439 91.3421C66.397 91.1231 66.6042 90.8561 66.7534 90.5565L67.0334 90.0058L67.0583 78.5445L67.0832 67.0832L78.5445 67.0583L90.0058 67.0334L90.5565 66.7534C90.8561 66.6042 91.1231 66.397 91.3421 66.1439C91.561 65.8908 91.7276 65.5967 91.8321 65.2787C91.9876 64.7716 91.9876 63.2285 91.8321 62.7214C91.7276 62.4034 91.561 62.1093 91.3421 61.8562C91.1231 61.6031 90.8561 61.3959 90.5565 61.2467L90.0058 60.9667L78.5445 60.9418L67.0832 60.9169L67.0583 49.4618L67.0334 38.0067L66.7721 37.4716C66.6397 37.1834 66.4505 36.9249 66.2158 36.7116C65.9811 36.4983 65.7058 36.3346 65.4063 36.2303C64.6422 36.0361 63.8479 35.9907 63.0667 36.0965Z" fill="white"/>
</g>
<path d="M136 20C136 8.95431 144.954 0 156 0H244C255.046 0 264 8.95431 264 20V108C264 119.046 255.046 128 244 128H136V20Z" fill="#475569"/>
<g clip-path="url(#clip1_30_8707)">
<path fill-rule="evenodd" clip-rule="evenodd" d="M174.315 61.0996C173.332 61.2458 172.604 61.7902 172.243 62.6551C171.975 63.2929 171.975 64.9605 172.243 65.5982C172.484 66.1548 172.903 66.6155 173.434 66.908L173.82 67.1134H226.18L226.553 66.9142C227.072 66.6452 227.481 66.2042 227.711 65.6667C227.925 65.2094 227.953 65.0382 227.953 64.1267C227.953 63.2151 227.925 63.044 227.711 62.5867C227.278 61.6751 226.681 61.252 225.601 61.0965C224.814 60.9814 175.089 60.9876 174.315 61.0996Z" fill="white"/>
</g>
<path d="M0 156C0 144.954 8.95431 136 20 136H128V244C128 255.046 119.046 264 108 264H20C8.95431 264 0 255.046 0 244V156Z" fill="#475569"/>
<path fill-rule="evenodd" clip-rule="evenodd" d="M44.4607 182.105C43.98 182.359 43.3407 183.01 43.0887 183.503C42.9572 183.763 42.889 184.05 42.8894 184.342C42.8898 184.633 42.9589 184.921 43.091 185.18C43.238 185.474 45.814 188.113 51.9904 194.297L60.6844 203L51.9904 211.703C45.814 217.887 43.238 220.526 43.091 220.82C42.6804 221.643 42.888 222.495 43.6977 223.302C44.505 224.112 45.3567 224.32 46.1804 223.909C46.4744 223.762 49.1134 221.186 55.2967 215.01L64 206.316L72.7034 215.01C78.8867 221.186 81.5257 223.762 81.8197 223.909C82.6434 224.32 83.495 224.112 84.3024 223.302C85.112 222.495 85.3197 221.643 84.909 220.82C84.762 220.526 82.186 217.887 76.0097 211.703L67.3157 203L76.0097 194.297C82.186 188.113 84.762 185.474 84.909 185.18C85.3197 184.357 85.112 183.505 84.3024 182.698C83.509 181.904 82.62 181.692 81.7987 182.103C81.5327 182.236 78.6137 185.089 72.7034 190.99L64 199.684L55.2967 190.99C49.3864 185.089 46.4674 182.236 46.2014 182.103C45.9286 181.976 45.6314 181.911 45.3308 181.911C45.0301 181.912 44.7331 181.978 44.4607 182.105Z" fill="white"/>
<path d="M136 136H244C255.046 136 264 144.954 264 156V244C264 255.046 255.046 264 244 264H156C144.954 264 136 255.046 136 244V136Z" fill="#2563EB"/>
<g clip-path="url(#clip2_30_8707)">
<path fill-rule="evenodd" clip-rule="evenodd" d="M174.558 186.102C173.617 186.259 172.777 186.802 172.427 187.477C171.996 188.314 171.884 189.745 172.175 190.785C172.49 191.922 173.078 192.51 174.215 192.825C174.821 192.993 175.727 193 200 193C224.272 193 225.179 192.993 225.784 192.825C226.922 192.51 227.51 191.922 227.825 190.785C228.042 190.011 228.049 189.08 227.846 188.279C227.756 187.813 227.543 187.38 227.23 187.024C226.917 186.668 226.515 186.401 226.064 186.252L225.525 186.046L200.28 186.035C186.395 186.028 174.821 186.056 174.558 186.102ZM174.558 207.102C173.617 207.259 172.777 207.802 172.427 208.477C171.996 209.314 171.884 210.745 172.175 211.785C172.49 212.922 173.078 213.51 174.215 213.825C174.821 213.993 175.727 214 200 214C224.272 214 225.179 213.993 225.784 213.825C226.922 213.51 227.51 212.922 227.825 211.785C228.042 211.011 228.049 210.08 227.846 209.279C227.756 208.813 227.543 208.38 227.23 208.024C226.917 207.668 226.515 207.401 226.064 207.252L225.525 207.046L200.28 207.035C186.395 207.028 174.821 207.056 174.558 207.102Z" fill="white"/>
</g>
<defs>
<clipPath id="clip0_30_8707">
<rect width="56" height="56" fill="white" transform="translate(36 36)"/>
</clipPath>
<clipPath id="clip1_30_8707">
<rect width="56" height="6.22222" fill="white" transform="translate(172 61)"/>
</clipPath>
<clipPath id="clip2_30_8707">
<rect width="56" height="28" fill="white" transform="translate(172 186)"/>
</clipPath>
</defs>
</svg>
