<svg width="128" height="128" viewBox="0 0 128 128" fill="none" xmlns="http://www.w3.org/2000/svg">
<path fill-rule="evenodd" clip-rule="evenodd" d="M82.2152 102.667V100.469C82.2152 100.469 75.3472 100.606 73.4242 99.0953C71.5011 97.5844 70.2649 94.9746 70.2649 90.9911C70.2649 87.0077 70.2649 78.4914 70.2649 78.4914C70.2649 78.4914 88.5337 76.5684 94.3028 70.7993C100.072 65.0302 101.72 55.6898 101.72 49.9207C101.72 47.0362 101.75 39.2831 101.75 35.2301C101.75 32.7546 102.188 28.347 105.548 28.347C107.218 28.347 109.824 28.3553 109.824 28.3553V25.4707C109.824 25.4707 106.253 25.3334 104.055 25.3334C101.858 25.3334 96.5692 25.6768 93.8907 28.3553C91.2122 31.0338 89.4952 38.3825 89.4952 51.0196C89.4952 63.6566 88.3963 67.0906 85.2371 70.2499C80.4977 74.9893 70.2649 75.3322 70.2649 75.3322C70.2649 75.3322 70.2649 43.4648 70.2649 39.0693C70.2649 34.6738 70.1275 32.3387 72.1879 30.2783C74.2483 28.2179 81.1163 28.4926 81.1163 28.4926V25.3334H47.375V28.4926C47.375 28.4926 54.2429 28.2179 56.3033 30.2783C58.3637 32.3387 58.2263 34.6738 58.2263 39.0693C58.2263 43.4648 58.2263 75.3322 58.2263 75.3322C58.2263 75.3322 47.9936 74.9893 43.2542 70.2499C40.0949 67.0906 38.996 63.6566 38.996 51.0196C38.996 38.3825 37.2791 31.0338 34.6005 28.3553C31.922 25.6768 26.6337 25.3334 24.436 25.3334C22.2382 25.3334 18.6669 25.4708 18.6669 25.4708V28.3553C18.6669 28.3553 21.2731 28.347 22.9437 28.347C26.3034 28.347 26.7408 32.7546 26.7408 35.2301C26.7408 39.2832 26.7711 47.0362 26.7711 49.9207C26.7711 55.6898 28.4194 65.0303 34.1885 70.7994C39.9576 76.5684 58.2263 78.4915 58.2263 78.4915C58.2263 78.4915 58.2263 87.0077 58.2263 90.9912C58.2263 94.9746 56.9901 97.5844 55.0671 99.0954C53.144 100.606 46.2761 100.469 46.2761 100.469V102.667" fill="#37B1A7" style="fill:#37B1A7;fill:color(display-p3 0.2157 0.6941 0.6549);fill-opacity:1;"/>
</svg>
