<svg width="96" height="96" viewBox="0 0 96 96" fill="none" xmlns="http://www.w3.org/2000/svg">
<path fill-rule="evenodd" clip-rule="evenodd" d="M61.6612 77V75.3517C61.6612 75.3517 56.5102 75.4547 55.068 74.3215C53.6257 73.1883 52.6985 71.2309 52.6985 68.2433C52.6985 65.2558 52.6985 58.8686 52.6985 58.8686C52.6985 58.8686 66.4001 57.4263 70.7269 53.0995C75.0537 48.7726 76.29 41.7673 76.29 37.4405C76.29 35.2771 76.3126 29.4623 76.3126 26.4226C76.3126 24.5659 76.6407 21.2602 79.1605 21.2602C80.4134 21.2602 82.3681 21.2664 82.3681 21.2664V19.103C82.3681 19.103 79.6896 19 78.0413 19C76.393 19 72.4267 19.2575 70.4179 21.2664C68.409 23.2753 67.1212 28.7869 67.1212 38.2646C67.1212 47.7424 66.2971 50.3179 63.9276 52.6874C60.3731 56.2419 52.6985 56.4991 52.6985 56.4991C52.6985 56.4991 52.6985 32.5986 52.6985 29.3019C52.6985 26.0053 52.5955 24.254 54.1408 22.7087C55.6861 21.1634 60.8371 21.3694 60.8371 21.3694V19H35.5311V21.3694C35.5311 21.3694 40.682 21.1634 42.2273 22.7087C43.7726 24.254 43.6696 26.0053 43.6696 29.3019C43.6696 32.5986 43.6696 56.4991 43.6696 56.4991C43.6696 56.4991 35.995 56.2419 32.4405 52.6874C30.071 50.3179 29.2469 47.7425 29.2469 38.2647C29.2469 28.7869 27.9591 23.2753 25.9503 21.2664C23.9414 19.2576 19.9751 19 18.3268 19C16.6785 19 14 19.103 14 19.103V21.2664C14 21.2664 15.9547 21.2602 17.2076 21.2602C19.7274 21.2602 20.0555 24.566 20.0555 26.4226C20.0555 29.4623 20.0781 35.2771 20.0781 37.4405C20.0781 41.7673 21.3144 48.7727 25.6412 53.0995C29.968 57.4263 43.6696 58.8686 43.6696 58.8686C43.6696 58.8686 43.6696 65.2558 43.6696 68.2433C43.6696 71.2309 42.7424 73.1883 41.3002 74.3215C39.8579 75.4547 34.7069 75.3517 34.7069 75.3517V77" fill="#3B82F6"/>
</svg>
