<svg  viewBox="0 0 257 256" fill="none" xmlns="http://www.w3.org/2000/svg">
<path d="M138.547 62.0114L133.341 63.354L69.2008 79.8945L63.9947 81.2371C61.4677 81.8918 59.3036 83.5221 57.9772 85.7704C56.6507 88.0187 56.2703 90.7014 56.9193 93.2298L79.4942 180.77C80.1489 183.297 81.7792 185.461 84.0275 186.788C86.2758 188.114 88.9584 188.495 91.4869 187.846L91.5003 187.842L166.026 168.623L166.04 168.62C168.567 167.965 170.731 166.335 172.057 164.087C173.384 161.838 173.764 159.156 173.115 156.627L150.54 69.0869C149.885 66.5599 148.255 64.3958 146.007 63.0693C143.758 61.7429 141.076 61.3624 138.547 62.0114Z" fill="#555D6D"/>
<path d="M139.255 64.7561L133.089 66.3462L70.8687 82.3916L64.7025 83.9817C62.903 84.4479 61.3618 85.6089 60.4173 87.21C59.4727 88.8111 59.2017 90.7214 59.6639 92.522L82.2388 180.062C82.705 181.862 83.866 183.403 85.4671 184.348C87.0681 185.292 88.9785 185.563 90.7791 185.101L90.7925 185.097L165.318 165.879L165.332 165.875C167.131 165.409 168.672 164.248 169.617 162.647C170.562 161.046 170.833 159.135 170.37 157.335L147.795 69.7946C147.329 67.9951 146.168 66.454 144.567 65.5094C142.966 64.5648 141.056 64.2939 139.255 64.7561Z" fill="#252736"/>
<path d="M134.599 93.1039L96.8984 102.826C96.4773 102.935 96.0304 102.872 95.6558 102.651C95.2813 102.43 95.0099 102.069 94.9013 101.648C94.7927 101.227 94.8558 100.78 95.0768 100.405C95.2978 100.031 95.6585 99.7594 96.0795 99.6508L133.78 89.9285C134.201 89.8204 134.648 89.8838 135.022 90.1048C135.396 90.3258 135.667 90.6863 135.776 91.1072C135.885 91.528 135.822 91.9747 135.601 92.3491C135.38 92.7235 135.02 92.995 134.599 93.1039Z" fill="#555D6D"/>
<path d="M142.53 96.7734L98.2802 108.185C97.8591 108.293 97.4122 108.23 97.0376 108.009C96.6631 107.788 96.3917 107.427 96.2831 107.006C96.1745 106.585 96.2377 106.138 96.4586 105.764C96.6796 105.389 97.0403 105.118 97.4614 105.009L141.711 93.5981C142.132 93.4895 142.579 93.5526 142.954 93.7736C143.328 93.9946 143.6 94.3553 143.708 94.7763C143.817 95.1974 143.754 95.6444 143.533 96.0189C143.312 96.3934 142.951 96.6649 142.53 96.7734Z" fill="#555D6D"/>
<path d="M140.792 117.118L103.091 126.84C102.883 126.894 102.666 126.906 102.452 126.876C102.239 126.846 102.034 126.774 101.848 126.664C101.663 126.555 101.501 126.41 101.371 126.238C101.242 126.066 101.148 125.87 101.094 125.662C101.04 125.453 101.028 125.236 101.058 125.023C101.088 124.81 101.16 124.604 101.269 124.419C101.379 124.234 101.524 124.071 101.696 123.942C101.868 123.813 102.064 123.718 102.272 123.664L139.973 113.942C140.181 113.888 140.399 113.876 140.612 113.906C140.825 113.936 141.03 114.008 141.216 114.118C141.401 114.227 141.563 114.372 141.693 114.544C141.822 114.716 141.916 114.912 141.97 115.12C142.024 115.329 142.036 115.546 142.006 115.759C141.976 115.972 141.904 116.178 141.795 116.363C141.685 116.548 141.54 116.711 141.368 116.84C141.196 116.969 141 117.064 140.792 117.118Z" fill="#555D6D"/>
<path d="M148.723 120.787L104.473 132.198C104.264 132.252 104.047 132.264 103.834 132.234C103.621 132.204 103.416 132.132 103.23 132.023C103.045 131.913 102.883 131.769 102.753 131.596C102.624 131.424 102.53 131.229 102.476 131.02C102.422 130.812 102.41 130.595 102.44 130.381C102.47 130.168 102.542 129.963 102.651 129.777C102.761 129.592 102.906 129.43 103.078 129.3C103.25 129.171 103.446 129.077 103.654 129.023L147.904 117.612C148.325 117.503 148.772 117.566 149.147 117.787C149.521 118.008 149.792 118.369 149.901 118.79C150.01 119.211 149.947 119.658 149.726 120.033C149.505 120.407 149.144 120.679 148.723 120.787Z" fill="#555D6D"/>
<path d="M146.984 141.131L109.284 150.854C108.863 150.962 108.416 150.898 108.042 150.677C107.667 150.456 107.396 150.096 107.288 149.675C107.179 149.254 107.242 148.807 107.463 148.433C107.684 148.058 108.044 147.787 108.465 147.678L146.166 137.956C146.587 137.847 147.034 137.91 147.408 138.131C147.783 138.352 148.054 138.713 148.163 139.134C148.271 139.555 148.208 140.002 147.987 140.377C147.766 140.751 147.406 141.023 146.984 141.131Z" fill="#555D6D"/>
<path d="M154.915 144.801L110.666 156.212C110.457 156.266 110.24 156.278 110.026 156.248C109.813 156.218 109.608 156.147 109.422 156.037C109.237 155.928 109.074 155.783 108.945 155.611C108.815 155.439 108.721 155.243 108.667 155.034C108.613 154.825 108.601 154.608 108.631 154.395C108.661 154.182 108.733 153.976 108.843 153.791C108.952 153.605 109.097 153.443 109.27 153.314C109.442 153.184 109.638 153.09 109.847 153.037L154.097 141.625C154.518 141.517 154.965 141.58 155.339 141.801C155.714 142.022 155.985 142.383 156.094 142.804C156.202 143.225 156.139 143.672 155.918 144.046C155.697 144.421 155.337 144.692 154.915 144.801Z" fill="#555D6D"/>
<path d="M90.4623 112.795L77.1204 116.236C76.9185 116.287 76.7043 116.257 76.5247 116.151C76.3452 116.045 76.215 115.872 76.1628 115.671L73.1001 103.794C73.0483 103.593 73.0787 103.378 73.1846 103.199C73.2905 103.019 73.4633 102.889 73.6651 102.837L87.007 99.3962C87.2089 99.3444 87.4231 99.3747 87.6027 99.4806C87.7822 99.5866 87.9124 99.7594 87.9647 99.9611L91.0273 111.837C91.0791 112.039 91.0487 112.253 90.9428 112.433C90.8369 112.613 90.6641 112.743 90.4623 112.795Z" fill="#555D6D"/>
<path d="M96.655 136.809L83.313 140.249C83.1111 140.301 82.8969 140.271 82.7174 140.165C82.5379 140.059 82.4077 139.886 82.3554 139.684L79.2928 127.808C79.2409 127.606 79.2713 127.392 79.3772 127.212C79.4832 127.033 79.656 126.903 79.8577 126.85L93.1997 123.41C93.4016 123.358 93.6158 123.388 93.7953 123.494C93.9748 123.6 94.105 123.773 94.1573 123.975L97.2199 135.851C97.2718 136.053 97.2414 136.267 97.1355 136.447C97.0295 136.626 96.8567 136.756 96.655 136.809Z" fill="#555D6D"/>
<path d="M102.848 160.822L89.5057 164.263C89.3038 164.315 89.0896 164.284 88.91 164.178C88.7305 164.073 88.6003 163.9 88.548 163.698L85.4854 151.822C85.4336 151.62 85.464 151.406 85.5699 151.226C85.6758 151.047 85.8486 150.916 86.0504 150.864L99.3923 147.424C99.5942 147.372 99.8084 147.402 99.988 147.508C100.167 147.614 100.298 147.787 100.35 147.988L103.413 159.865C103.464 160.067 103.434 160.281 103.328 160.46C103.222 160.64 103.049 160.77 102.848 160.822Z" fill="#555D6D"/>
<path d="M190.544 84.2018H113.552C110.942 84.2047 108.439 85.243 106.593 87.0889C104.748 88.9347 103.709 91.4374 103.706 94.0478V184.452C103.709 187.062 104.748 189.565 106.593 191.411C108.439 193.257 110.942 194.295 113.552 194.298H190.544C193.155 194.295 195.657 193.257 197.503 191.411C199.349 189.565 200.387 187.062 200.39 184.452V94.0478C200.387 91.4374 199.349 88.9347 197.503 87.0889C195.657 85.243 193.155 84.2047 190.544 84.2018Z" fill="#555D6D"/>
<path d="M190.544 87.0363H113.552C111.693 87.0383 109.911 87.7777 108.597 89.0922C107.282 90.4067 106.543 92.1889 106.541 94.0478V184.452C106.543 186.311 107.282 188.093 108.597 189.408C109.911 190.722 111.693 191.462 113.552 191.464H190.544C192.403 191.461 194.185 190.722 195.5 189.408C196.814 188.093 197.554 186.311 197.556 184.452V94.0478C197.554 92.1889 196.814 90.4067 195.5 89.0922C194.185 87.7778 192.403 87.0384 190.544 87.0363Z" fill="#252736"/>
<path d="M178.957 136.713H140.023C139.807 136.713 139.594 136.671 139.395 136.589C139.196 136.507 139.015 136.386 138.862 136.234C138.71 136.081 138.589 135.9 138.506 135.701C138.424 135.502 138.381 135.289 138.381 135.074C138.381 134.858 138.424 134.645 138.506 134.446C138.589 134.247 138.71 134.066 138.862 133.913C139.015 133.761 139.196 133.64 139.395 133.558C139.594 133.476 139.807 133.434 140.023 133.434H178.957C179.391 133.434 179.808 133.607 180.115 133.915C180.422 134.222 180.595 134.639 180.595 135.074C180.595 135.508 180.422 135.925 180.115 136.232C179.808 136.54 179.391 136.713 178.957 136.713Z" fill="#555D6D"/>
<path d="M185.72 142.247H140.023C139.807 142.247 139.594 142.205 139.395 142.123C139.196 142.04 139.015 141.92 138.862 141.767C138.71 141.615 138.589 141.434 138.506 141.235C138.424 141.036 138.381 140.823 138.381 140.607C138.381 140.392 138.424 140.178 138.506 139.979C138.589 139.78 138.71 139.6 138.862 139.447C139.015 139.295 139.196 139.174 139.395 139.092C139.594 139.01 139.807 138.967 140.023 138.968H185.72C186.155 138.968 186.572 139.14 186.88 139.448C187.187 139.755 187.36 140.172 187.36 140.607C187.36 141.042 187.187 141.459 186.88 141.767C186.572 142.074 186.155 142.247 185.72 142.247Z" fill="#555D6D"/>
<path d="M178.957 161.512H140.023C139.807 161.513 139.594 161.47 139.395 161.388C139.196 161.306 139.015 161.185 138.862 161.033C138.71 160.881 138.589 160.7 138.506 160.501C138.424 160.302 138.381 160.088 138.381 159.873C138.381 159.657 138.424 159.444 138.506 159.245C138.589 159.046 138.71 158.865 138.862 158.713C139.015 158.561 139.196 158.44 139.395 158.358C139.594 158.275 139.807 158.233 140.023 158.233H178.957C179.392 158.233 179.809 158.406 180.116 158.713C180.424 159.021 180.597 159.438 180.597 159.873C180.597 160.308 180.424 160.725 180.116 161.032C179.809 161.34 179.392 161.512 178.957 161.512Z" fill="#555D6D"/>
<path d="M185.72 167.046H140.023C139.807 167.046 139.594 167.004 139.395 166.922C139.196 166.84 139.015 166.719 138.862 166.567C138.71 166.414 138.589 166.233 138.506 166.034C138.424 165.835 138.381 165.622 138.381 165.407C138.381 165.191 138.424 164.978 138.506 164.779C138.589 164.58 138.71 164.399 138.862 164.246C139.015 164.094 139.196 163.973 139.395 163.891C139.594 163.809 139.807 163.767 140.023 163.767H185.72C185.936 163.767 186.149 163.809 186.348 163.891C186.548 163.973 186.728 164.094 186.881 164.246C187.033 164.399 187.154 164.58 187.237 164.779C187.319 164.978 187.362 165.191 187.362 165.407C187.362 165.622 187.319 165.835 187.237 166.034C187.154 166.233 187.033 166.414 186.881 166.567C186.728 166.719 186.548 166.84 186.348 166.922C186.149 167.004 185.936 167.046 185.72 167.046Z" fill="#555D6D"/>
<path d="M131.301 144.759H117.523C117.314 144.759 117.114 144.676 116.967 144.528C116.82 144.381 116.737 144.181 116.737 143.973V131.708C116.737 131.5 116.82 131.3 116.967 131.152C117.114 131.005 117.314 130.922 117.523 130.922H131.301C131.51 130.922 131.709 131.005 131.857 131.152C132.004 131.3 132.087 131.5 132.087 131.708V143.973C132.087 144.181 132.004 144.381 131.857 144.528C131.709 144.676 131.51 144.759 131.301 144.759Z" fill="#555D6D"/>
<path d="M131.301 169.558H117.523C117.314 169.558 117.114 169.475 116.967 169.328C116.82 169.18 116.737 168.981 116.737 168.772V156.507C116.737 156.299 116.82 156.099 116.967 155.952C117.114 155.804 117.314 155.721 117.523 155.721H131.301C131.51 155.721 131.709 155.804 131.857 155.952C132.004 156.099 132.087 156.299 132.087 156.507V168.772C132.087 168.981 132.004 169.18 131.857 169.328C131.709 169.475 131.51 169.558 131.301 169.558Z" fill="#555D6D"/>
<path d="M179 109.107H150.296C149.861 109.107 149.444 108.934 149.136 108.626C148.829 108.319 148.656 107.902 148.656 107.467C148.656 107.032 148.829 106.615 149.136 106.308C149.444 106 149.861 105.827 150.296 105.827H179C179.435 105.827 179.852 106 180.159 106.308C180.467 106.615 180.64 107.032 180.64 107.467C180.64 107.902 180.467 108.319 180.159 108.626C179.852 108.934 179.435 109.107 179 109.107Z" fill="#9EBFF4"/>
<path d="M185.764 114.64H150.296C150.08 114.64 149.867 114.598 149.668 114.516C149.469 114.433 149.288 114.312 149.136 114.16C148.984 114.008 148.863 113.827 148.781 113.628C148.698 113.429 148.656 113.216 148.656 113.001C148.656 112.785 148.698 112.572 148.781 112.373C148.863 112.174 148.984 111.994 149.136 111.841C149.288 111.689 149.469 111.568 149.668 111.486C149.867 111.403 150.08 111.361 150.296 111.361H185.764C186.198 111.361 186.615 111.534 186.923 111.841C187.23 112.149 187.403 112.566 187.403 113.001C187.403 113.436 187.23 113.853 186.923 114.16C186.615 114.468 186.198 114.64 185.764 114.64Z" fill="#9EBFF4"/>
<path d="M143.943 121.347H117.48C117.271 121.346 117.071 121.263 116.924 121.116C116.776 120.969 116.694 120.769 116.693 120.56V99.9073C116.694 99.6989 116.776 99.4991 116.924 99.3517C117.071 99.2043 117.271 99.1214 117.48 99.1212H143.943C144.151 99.1214 144.351 99.2043 144.498 99.3517C144.646 99.4991 144.729 99.6989 144.729 99.9073V120.56C144.729 120.769 144.646 120.969 144.498 121.116C144.351 121.263 144.151 121.346 143.943 121.347Z" fill="#3B82F6"/>
</svg>
