<svg width="489" height="226" viewBox="0 0 489 226" fill="none" xmlns="http://www.w3.org/2000/svg">
<g filter="url(#filter0_i_443_12578)">
<path fill-rule="evenodd" clip-rule="evenodd" d="M148.63 176.604V172.774C148.63 172.774 136.66 173.013 133.309 170.38C129.958 167.747 127.803 163.198 127.803 156.256C127.803 149.314 127.803 134.472 127.803 134.472C127.803 134.472 159.642 131.12 169.696 121.066C179.751 111.011 182.623 94.7327 182.623 84.6783C182.623 79.6511 182.676 66.1391 182.676 59.0754C182.676 54.7611 183.439 47.0794 189.294 47.0794C192.205 47.0794 196.747 47.0939 196.747 47.0939V42.0667C196.747 42.0667 190.523 41.8273 186.693 41.8273C182.863 41.8273 173.646 42.4258 168.978 47.0939C164.31 51.762 161.318 64.5694 161.318 86.5934C161.318 108.617 159.403 114.602 153.897 120.108C145.637 128.368 127.803 128.965 127.803 128.965C127.803 128.965 127.803 73.4269 127.803 65.7664C127.803 58.1059 127.564 54.0362 131.154 50.4454C134.745 46.8545 146.715 47.3333 146.715 47.3333V41.8273H87.9103V47.3333C87.9103 47.3333 99.8799 46.8545 103.471 50.4454C107.062 54.0362 106.822 58.1059 106.822 65.7664C106.822 73.4269 106.822 128.965 106.822 128.965C106.822 128.965 88.9885 128.368 80.7286 120.108C75.2226 114.602 73.3075 108.617 73.3075 86.5934C73.3075 64.5695 70.3151 51.7621 65.647 47.094C60.9789 42.4259 51.7624 41.8274 47.9321 41.8274C44.1019 41.8274 37.8777 42.0668 37.8777 42.0668V47.094C37.8777 47.094 42.4199 47.0795 45.3314 47.0795C51.1867 47.0795 51.9491 54.7612 51.9491 59.0755C51.9491 66.1391 52.0018 79.6511 52.0018 84.6783C52.0018 94.7327 54.8744 111.011 64.9288 121.066C74.9832 131.12 106.822 134.472 106.822 134.472C106.822 134.472 106.822 149.314 106.822 156.256C106.822 163.198 104.668 167.747 101.316 170.38C97.9647 173.013 85.9952 172.774 85.9952 172.774V176.604" fill="#3B82F6"/>
<path d="M297.37 102.279C305.55 102.279 309.64 98.338 309.64 90.4559C309.64 86.2174 308.599 83.243 306.517 81.5327C304.435 79.7481 301.386 78.8558 297.37 78.8558H266.809V105.625C269.337 104.138 271.902 103.209 274.505 102.837C277.182 102.465 279.896 102.279 282.647 102.279H297.37ZM254.651 149.906V66.698H297.37C301.014 66.698 304.323 67.2557 307.297 68.3711C310.346 69.4121 312.912 70.9737 314.994 73.0557C317.15 75.0634 318.786 77.5545 319.901 80.5289C321.091 83.4289 321.686 86.7379 321.686 90.4559C321.686 94.1739 321.091 97.5201 319.901 100.494C318.786 103.394 317.15 105.923 314.994 108.079C312.912 110.161 310.346 111.76 307.297 112.875C304.323 113.991 301.014 114.548 297.37 114.548H282.647C279.97 114.548 277.293 114.772 274.616 115.218C271.939 115.664 269.337 116.556 266.809 117.895V149.906H254.651ZM404.196 124.587C404.196 128.751 403.23 132.543 401.296 135.964C399.437 139.31 396.835 142.173 393.489 144.553C390.217 146.858 386.313 148.642 381.777 149.906C377.241 151.171 372.333 151.803 367.054 151.803C363.856 151.803 360.659 151.394 357.461 150.576C354.338 149.832 351.29 148.754 348.315 147.341C345.341 145.854 342.515 144.069 339.838 141.987C337.236 139.831 334.893 137.414 332.811 134.737L341.511 126.595C342.627 127.933 343.965 129.383 345.527 130.945C347.088 132.432 348.91 133.845 350.992 135.183C353.149 136.447 355.528 137.526 358.131 138.418C360.808 139.236 363.782 139.645 367.054 139.645C370.103 139.645 373.114 139.347 376.089 138.753C379.063 138.158 381.703 137.265 384.008 136.076C386.313 134.811 388.172 133.25 389.585 131.391C390.998 129.458 391.704 127.19 391.704 124.587C391.704 121.39 390.96 118.936 389.473 117.225C388.06 115.515 386.201 114.288 383.896 113.545C381.591 112.727 378.951 112.243 375.977 112.095C373.003 111.946 370.028 111.871 367.054 111.871C357.015 111.871 349.393 110.087 344.188 106.518C338.983 102.948 336.38 97.5572 336.38 90.3444C336.38 86.9982 337.124 83.7635 338.611 80.6404C340.173 77.4429 342.292 74.6545 344.969 72.2749C347.72 69.8211 350.955 67.8877 354.673 66.4749C358.465 64.9877 362.592 64.2441 367.054 64.2441C373.374 64.2441 379.286 65.2108 384.789 67.1441C390.291 69.0775 395.534 72.498 400.516 77.4058L392.931 86.3289C390.7 84.5443 388.581 83.0199 386.573 81.7558C384.64 80.4917 382.669 79.4878 380.662 78.7442C378.654 77.9263 376.535 77.3686 374.304 77.0711C372.147 76.6993 369.731 76.5134 367.054 76.5134C364.674 76.5134 362.444 76.8852 360.361 77.6288C358.279 78.3724 356.458 79.3763 354.896 80.6404C353.334 81.9045 352.108 83.3917 351.215 85.102C350.323 86.7379 349.877 88.4482 349.877 90.2328C349.877 91.4969 350.137 92.7239 350.657 93.9136C351.178 95.029 352.108 96.0329 353.446 96.9252C354.784 97.8175 356.569 98.5239 358.8 99.0444C361.105 99.565 364.042 99.8252 367.612 99.8252C374.899 99.8252 380.885 100.383 385.569 101.498C390.328 102.614 394.084 104.25 396.835 106.406C399.586 108.488 401.482 111.091 402.523 114.214C403.639 117.263 404.196 120.72 404.196 124.587ZM448.639 103.283C453.77 97.929 458.306 92.129 462.247 85.8828C466.188 79.6366 469.348 73.2416 471.728 66.698H485.67C481.655 76.0673 477.044 84.5815 471.839 92.2405C466.708 99.8996 460.983 107.112 454.662 113.879V149.906H442.616V113.879C436.295 107.112 430.532 99.8996 425.327 92.2405C420.196 84.5815 415.623 76.0673 411.608 66.698H425.55C427.93 73.2416 431.09 79.6366 435.031 85.8828C438.972 92.129 443.508 97.929 448.639 103.283Z" fill="#3B82F6"/>
</g>
<defs>
<filter id="filter0_i_443_12578" x="0.697876" y="0" width="487.986" height="229.403" filterUnits="userSpaceOnUse" color-interpolation-filters="sRGB">
<feFlood flood-opacity="0" result="BackgroundImageFix"/>
<feBlend mode="normal" in="SourceGraphic" in2="BackgroundImageFix" result="shape"/>
<feColorMatrix in="SourceAlpha" type="matrix" values="0 0 0 0 0 0 0 0 0 0 0 0 0 0 0 0 0 0 127 0" result="hardAlpha"/>
<feOffset dy="4"/>
<feGaussianBlur stdDeviation="2"/>
<feComposite in2="hardAlpha" operator="arithmetic" k2="-1" k3="1"/>
<feColorMatrix type="matrix" values="0 0 0 0 0 0 0 0 0 0 0 0 0 0 0 0 0 0 0.25 0"/>
<feBlend mode="normal" in2="shape" result="effect1_innerShadow_443_12578"/>
</filter>
</defs>
</svg>
