<svg class="" width="501" height="323" viewBox="0 0 501 323" fill="none" xmlns="http://www.w3.org/2000/svg">
<g filter="url(#filter0_i_443_12578)">
  <path fill-rule="evenodd" clip-rule="evenodd"
    d="M148.63 213.784V209.954C148.63 209.954 136.66 210.193 133.309 207.56C129.958 204.927 127.803 200.378 127.803 193.436C127.803 186.494 127.803 171.651 127.803 171.651C127.803 171.651 159.642 168.3 169.696 158.246C179.751 148.191 182.623 131.913 182.623 121.858C182.623 116.831 182.676 103.319 182.676 96.2553C182.676 91.941 183.439 84.2593 189.294 84.2593C192.205 84.2593 196.747 84.2738 196.747 84.2738V79.2466C196.747 79.2466 190.523 79.0072 186.693 79.0072C182.863 79.0072 173.646 79.6057 168.978 84.2738C164.31 88.9419 161.318 101.749 161.318 123.773C161.318 145.797 159.403 151.782 153.897 157.288C145.637 165.548 127.803 166.145 127.803 166.145C127.803 166.145 127.803 110.607 127.803 102.946C127.803 95.2857 127.564 91.2161 131.154 87.6252C134.745 84.0344 146.715 84.5132 146.715 84.5132V79.0072H87.9103V84.5132C87.9103 84.5132 99.8799 84.0344 103.471 87.6252C107.062 91.2161 106.822 95.2857 106.822 102.946C106.822 110.607 106.822 166.145 106.822 166.145C106.822 166.145 88.9885 165.548 80.7286 157.288C75.2226 151.782 73.3075 145.797 73.3075 123.773C73.3075 101.749 70.3151 88.9419 65.647 84.2738C60.9789 79.6057 51.7624 79.0072 47.9321 79.0072C44.1019 79.0072 37.8777 79.2466 37.8777 79.2466V84.2738C37.8777 84.2738 42.4199 84.2593 45.3314 84.2593C51.1867 84.2593 51.9491 91.941 51.9491 96.2553C51.9491 103.319 52.0018 116.831 52.0018 121.858C52.0018 131.913 54.8744 148.191 64.9288 158.246C74.9832 168.3 106.822 171.651 106.822 171.651C106.822 171.651 106.822 186.494 106.822 193.436C106.822 200.378 104.668 204.927 101.316 207.56C97.9647 210.193 85.9952 209.954 85.9952 209.954V213.784"
    fill="#2563EB" />
  <path
    d="M297.752 139.711C305.931 139.711 310.021 135.77 310.021 127.888C310.021 123.649 308.98 120.675 306.898 118.964C304.816 117.18 301.767 116.287 297.752 116.287H267.19V143.057C269.718 141.57 272.283 140.64 274.886 140.268C277.563 139.897 280.277 139.711 283.028 139.711H297.752ZM255.032 187.338V104.13H297.752C301.395 104.13 304.704 104.687 307.679 105.803C310.727 106.844 313.293 108.405 315.375 110.487C317.531 112.495 319.167 114.986 320.283 117.961C321.472 120.861 322.067 124.17 322.067 127.888C322.067 131.606 321.472 134.952 320.283 137.926C319.167 140.826 317.531 143.354 315.375 145.511C313.293 147.593 310.727 149.192 307.679 150.307C304.704 151.422 301.395 151.98 297.752 151.98H283.028C280.351 151.98 277.675 152.203 274.998 152.649C272.321 153.096 269.718 153.988 267.19 155.326V187.338H255.032ZM404.578 162.019C404.578 166.183 403.611 169.975 401.678 173.396C399.819 176.742 397.216 179.605 393.87 181.984C390.598 184.289 386.694 186.074 382.158 187.338C377.622 188.602 372.715 189.234 367.435 189.234C364.238 189.234 361.04 188.825 357.843 188.007C354.72 187.264 351.671 186.186 348.696 184.773C345.722 183.286 342.896 181.501 340.219 179.419C337.617 177.262 335.275 174.846 333.192 172.169L341.893 164.026C343.008 165.365 344.346 166.815 345.908 168.376C347.47 169.864 349.291 171.276 351.373 172.615C353.53 173.879 355.909 174.957 358.512 175.85C361.189 176.668 364.163 177.077 367.435 177.077C370.484 177.077 373.495 176.779 376.47 176.184C379.444 175.589 382.084 174.697 384.389 173.507C386.694 172.243 388.553 170.682 389.966 168.823C391.379 166.889 392.085 164.621 392.085 162.019C392.085 158.821 391.342 156.367 389.855 154.657C388.442 152.947 386.583 151.72 384.278 150.976C381.972 150.158 379.333 149.675 376.358 149.526C373.384 149.378 370.409 149.303 367.435 149.303C357.397 149.303 349.775 147.519 344.569 143.949C339.364 140.38 336.762 134.989 336.762 127.776C336.762 124.43 337.505 121.195 338.993 118.072C340.554 114.875 342.673 112.086 345.35 109.707C348.102 107.253 351.336 105.319 355.054 103.907C358.847 102.419 362.974 101.676 367.435 101.676C373.756 101.676 379.667 102.642 385.17 104.576C390.673 106.509 395.915 109.93 400.897 114.837L393.312 123.761C391.081 121.976 388.962 120.452 386.955 119.187C385.021 117.923 383.051 116.92 381.043 116.176C379.035 115.358 376.916 114.8 374.685 114.503C372.529 114.131 370.112 113.945 367.435 113.945C365.056 113.945 362.825 114.317 360.743 115.061C358.661 115.804 356.839 116.808 355.277 118.072C353.716 119.336 352.489 120.823 351.596 122.534C350.704 124.17 350.258 125.88 350.258 127.664C350.258 128.929 350.518 130.156 351.039 131.345C351.559 132.461 352.489 133.465 353.827 134.357C355.166 135.249 356.95 135.956 359.181 136.476C361.486 136.997 364.424 137.257 367.993 137.257C375.28 137.257 381.266 137.815 385.951 138.93C390.71 140.045 394.465 141.681 397.216 143.838C399.967 145.92 401.864 148.522 402.905 151.645C404.02 154.694 404.578 158.152 404.578 162.019ZM449.02 140.715C454.151 135.361 458.687 129.561 462.628 123.314C466.569 117.068 469.729 110.673 472.109 104.13H486.051C482.036 113.499 477.426 122.013 472.22 129.672C467.09 137.331 461.364 144.544 455.043 151.311V187.338H442.997V151.311C436.676 144.544 430.914 137.331 425.708 129.672C420.578 122.013 416.004 113.499 411.989 104.13H425.931C428.311 110.673 431.471 117.068 435.412 123.314C439.353 129.561 443.889 135.361 449.02 140.715Z"
    fill="#2563EB" />
</g>
<defs>
  <filter id="filter0_i_443_12578" x="0.697876" y="0" width="499.604" height="327" filterUnits="userSpaceOnUse"
    color-interpolation-filters="sRGB">
    <feFlood flood-opacity="0" result="BackgroundImageFix" />
    <feBlend mode="normal" in="SourceGraphic" in2="BackgroundImageFix" result="shape" />
    <feColorMatrix in="SourceAlpha" type="matrix" values="0 0 0 0 0 0 0 0 0 0 0 0 0 0 0 0 0 0 127 0"
      result="hardAlpha" />
    <feOffset dy="4" />
    <feGaussianBlur stdDeviation="2" />
    <feComposite in2="hardAlpha" operator="arithmetic" k2="-1" k3="1" />
    <feColorMatrix type="matrix" values="0 0 0 0 0 0 0 0 0 0 0 0 0 0 0 0 0 0 0.25 0" />
    <feBlend mode="normal" in2="shape" result="effect1_innerShadow_443_12578" />
  </filter>
</defs>
</svg>