<svg width="48" height="48" viewBox="0 0 48 48" fill="none" xmlns="http://www.w3.org/2000/svg">
<path d="M24 40H32V36.8H24C17.056 36.8 11.2 30.944 11.2 24C11.2 17.056 17.056 11.2 24 11.2C30.944 11.2 36.8 17.056 36.8 24V26.288C36.8 27.552 35.664 28.8 34.4 28.8C33.136 28.8 32 27.552 32 26.288V24C32 19.584 28.416 16 24 16C19.584 16 16 19.584 16 24C16 28.416 19.584 32 24 32C26.208 32 28.224 31.104 29.664 29.648C30.704 31.072 32.496 32 34.4 32C37.552 32 40 29.44 40 26.288V24C40 15.168 32.832 8 24 8C15.168 8 8 15.168 8 24C8 32.832 15.168 40 24 40ZM24 28.8C21.344 28.8 19.2 26.656 19.2 24C19.2 21.344 21.344 19.2 24 19.2C26.656 19.2 28.8 21.344 28.8 24C28.8 26.656 26.656 28.8 24 28.8Z" fill="black"/>
</svg>
