<svg width="48" height="48" viewBox="0 0 48 48" fill="none" xmlns="http://www.w3.org/2000/svg">
<path d="M10.6667 40C10.6667 40 8 40 8 37.3333C8 34.6667 10.6667 26.6667 24 26.6667C37.3333 26.6667 40 34.6667 40 37.3333C40 40 37.3333 40 37.3333 40H10.6667ZM24 24C26.1217 24 28.1566 23.1571 29.6569 21.6569C31.1571 20.1566 32 18.1217 32 16C32 13.8783 31.1571 11.8434 29.6569 10.3431C28.1566 8.84285 26.1217 8 24 8C21.8783 8 19.8434 8.84285 18.3431 10.3431C16.8429 11.8434 16 13.8783 16 16C16 18.1217 16.8429 20.1566 18.3431 21.6569C19.8434 23.1571 21.8783 24 24 24Z" fill="black"/>
</svg>
