<svg width="49" height="48" viewBox="0 0 49 48" fill="none" xmlns="http://www.w3.org/2000/svg">
<path fill-rule="evenodd" clip-rule="evenodd" d="M13.921 19.7895C12.5809 19.7895 11.2958 20.3218 10.3482 21.2694C9.40069 22.2169 8.86836 23.5021 8.86836 24.8421V29.8582C8.86787 29.8817 8.86787 29.9052 8.86836 29.9286V36.6316H7.18415C6.25399 36.6316 5.49994 37.3856 5.49994 38.3158C5.49994 39.246 6.25399 40 7.18415 40H40.8684C41.7985 40 42.5526 39.246 42.5526 38.3158C42.5526 37.3856 41.7985 36.6316 40.8684 36.6316H39.1842V29.9312C39.1844 29.9188 39.1845 29.9064 39.1845 29.894C39.1845 29.883 39.1844 29.8719 39.1842 29.8609V24.8421C39.1842 23.5021 38.6518 22.2169 37.7043 21.2694C36.7567 20.3218 35.4716 19.7895 34.1315 19.7895V16.4211C34.1315 15.4909 33.3775 14.7368 32.4473 14.7368C31.5171 14.7368 30.7631 15.4909 30.7631 16.4211V19.7895H25.7105V16.4211C25.7105 15.4909 24.9564 14.7368 24.0263 14.7368C23.0961 14.7368 22.342 15.4909 22.342 16.4211V19.7895H17.2894V16.4211C17.2894 15.4909 16.5354 14.7368 15.6052 14.7368C14.675 14.7368 13.921 15.4909 13.921 16.4211V19.7895ZM12.2368 36.6316V30.4587C12.2679 30.4293 12.3028 30.3988 12.3415 30.3678C12.5907 30.1684 13.067 29.8947 13.921 29.8947C14.4833 29.8947 15.0601 30.2681 16.2373 31.2099L16.3776 31.3226C17.3158 32.0773 18.7898 33.2632 20.6578 33.2632C22.5259 33.2632 23.9999 32.0773 24.938 31.3226L25.0784 31.2099C26.2556 30.2681 26.8324 29.8947 27.3947 29.8947C27.957 29.8947 28.5338 30.2681 29.711 31.2099L29.8513 31.3226C30.7895 32.0773 32.2635 33.2632 34.1315 33.2632C34.7568 33.2632 35.3172 33.1837 35.8157 33.0506V36.6316H12.2368ZM35.711 29.4217C35.7497 29.3907 35.7846 29.3601 35.8157 29.3308V24.8421C35.8157 24.3954 35.6383 23.967 35.3224 23.6512C35.0066 23.3353 34.5782 23.1579 34.1315 23.1579H13.921C13.4743 23.1579 13.0459 23.3353 12.7301 23.6512C12.4142 23.967 12.2368 24.3954 12.2368 24.8421V26.7389C12.7354 26.6058 13.2957 26.5263 13.921 26.5263C15.789 26.5263 17.263 27.7122 18.2012 28.4669L18.3415 28.5796C19.5187 29.5214 20.0955 29.8947 20.6578 29.8947C21.2201 29.8947 21.7969 29.5214 22.9741 28.5796L23.1145 28.4669C24.0526 27.7122 25.5266 26.5263 27.3947 26.5263C29.2627 26.5263 30.7367 27.7122 31.6749 28.4669L31.8152 28.5796C32.9924 29.5214 33.5692 29.8947 34.1315 29.8947C34.9856 29.8947 35.4618 29.6211 35.711 29.4217Z" fill="black"/>
<path d="M13.921 9.68421C13.921 8.75405 14.675 8 15.6052 8H15.622C16.5522 8 17.3063 8.75405 17.3063 9.68421C17.3063 10.6144 16.5522 11.3684 15.622 11.3684H15.6052C14.675 11.3684 13.921 10.6144 13.921 9.68421Z" fill="black"/>
<path d="M22.342 9.68421C22.342 8.75405 23.0961 8 24.0263 8H24.0431C24.9733 8 25.7273 8.75405 25.7273 9.68421C25.7273 10.6144 24.9733 11.3684 24.0431 11.3684H24.0263C23.0961 11.3684 22.342 10.6144 22.342 9.68421Z" fill="black"/>
<path d="M30.7631 9.68421C30.7631 8.75405 31.5171 8 32.4473 8H32.4641C33.3943 8 34.1484 8.75405 34.1484 9.68421C34.1484 10.6144 33.3943 11.3684 32.4641 11.3684H32.4473C31.5171 11.3684 30.7631 10.6144 30.7631 9.68421Z" fill="black"/>
</svg>
