<svg width="49" height="48" viewBox="0 0 49 48" fill="none" xmlns="http://www.w3.org/2000/svg">
<path d="M24.4999 6C25.5464 6 26.3947 6.8483 26.3947 7.89474V26.0573L32.6338 19.8181C33.3738 19.0782 34.5735 19.0782 35.3134 19.8181C36.0533 20.5581 36.0533 21.7577 35.3134 22.4977L25.8397 31.9714C25.0998 32.7113 23.9001 32.7113 23.1602 31.9714L13.6865 22.4977C12.9465 21.7577 12.9465 20.5581 13.6865 19.8181C14.4264 19.0782 15.6261 19.0782 16.366 19.8181L22.6052 26.0573V7.89474C22.6052 6.8483 23.4535 6 24.4999 6Z" fill="black"/>
<path d="M9.34205 30.6316C10.3885 30.6316 11.2368 31.4799 11.2368 32.5263V36.3158C11.2368 36.8183 11.4364 37.3002 11.7917 37.6556C12.1471 38.0109 12.629 38.2105 13.1315 38.2105H35.8684C36.3709 38.2105 36.8528 38.0109 37.2081 37.6556C37.5635 37.3002 37.7631 36.8183 37.7631 36.3158V32.5263C37.7631 31.4799 38.6114 30.6316 39.6578 30.6316C40.7043 30.6316 41.5526 31.4799 41.5526 32.5263V36.3158C41.5526 37.8233 40.9537 39.2691 39.8877 40.3351C38.8217 41.4011 37.3759 42 35.8684 42H13.1315C11.624 42 10.1782 41.4011 9.11218 40.3351C8.04618 39.2691 7.44731 37.8233 7.44731 36.3158V32.5263C7.44731 31.4799 8.29561 30.6316 9.34205 30.6316Z" fill="black"/>
</svg>
