<svg width="49" height="48" viewBox="0 0 49 48" fill="none" xmlns="http://www.w3.org/2000/svg">
<path d="M19.9118 42C19.7107 42.0002 19.5121 41.9563 19.3298 41.8715C19.1475 41.7867 18.986 41.663 18.8566 41.5091C18.7273 41.3552 18.6331 41.1749 18.5809 40.9808C18.5287 40.7866 18.5196 40.5834 18.5543 40.3854V40.3771L20.6624 28.8009H12.5008C12.2742 28.8009 12.0523 28.7367 11.8607 28.6159C11.6691 28.495 11.5156 28.3223 11.418 28.1179C11.3204 27.9135 11.2827 27.6856 11.3092 27.4606C11.3357 27.2356 11.4254 27.0227 11.5678 26.8465L28.0045 6.52741C28.1915 6.28992 28.4513 6.12025 28.7439 6.04433C29.0366 5.96842 29.346 5.99044 29.625 6.10704C29.9039 6.22363 30.137 6.42838 30.2886 6.68997C30.4401 6.95157 30.5019 7.25561 30.4643 7.55559C30.4643 7.57809 30.4583 7.59984 30.4545 7.62234L28.3389 19.2016H36.4991C36.7257 19.2016 36.9476 19.2657 37.1392 19.3866C37.3308 19.5075 37.4843 19.6801 37.5819 19.8846C37.6795 20.089 37.7172 20.3169 37.6907 20.5419C37.6642 20.7669 37.5745 20.9798 37.4321 21.1559L20.9932 41.475C20.864 41.6382 20.6997 41.7702 20.5125 41.8611C20.3252 41.952 20.1199 41.9995 19.9118 42Z" fill="black"/>
</svg>
