<svg width="48" height="48" viewBox="0 0 48 48" fill="none" xmlns="http://www.w3.org/2000/svg">
<path d="M42 24.8283C42 23.3139 41.8775 22.2087 41.6122 21.0627H24.3673V27.8981H34.4897C34.2857 29.5968 33.1837 32.155 30.7346 33.874L30.7003 34.1029L36.1528 38.3387L36.5306 38.3765C39.9999 35.1634 42 30.4358 42 24.8283Z" fill="#4285F4"/>
<path d="M24.3673 42.838C29.3265 42.838 33.4897 41.2007 36.5306 38.3765L30.7347 33.874C29.1837 34.9587 27.102 35.7159 24.3673 35.7159C19.5102 35.7159 15.3878 32.5029 13.9183 28.0619L13.7029 28.0802L8.03328 32.4803L7.95914 32.687C10.9795 38.7039 17.1836 42.838 24.3673 42.838Z" fill="#34A853"/>
<path d="M13.9183 28.0619C13.5305 26.9159 13.3061 25.6878 13.3061 24.419C13.3061 23.1501 13.5305 21.9222 13.8979 20.7762L13.8876 20.5321L8.14696 16.0613L7.95914 16.1509C6.71429 18.6477 6 21.4515 6 24.419C6 27.3865 6.71429 30.1902 7.95914 32.6871L13.9183 28.0619Z" fill="#FBBC05"/>
<path d="M24.3673 13.122C27.8163 13.122 30.1428 14.6159 31.4693 15.8644L36.653 10.7889C33.4694 7.82144 29.3265 6 24.3673 6C17.1836 6 10.9795 10.134 7.95914 16.1508L13.8979 20.7761C15.3878 16.3351 19.5102 13.122 24.3673 13.122Z" fill="#EB4335"/>
</svg>
