<svg width="48" height="48" viewBox="0 0 48 48" fill="none" xmlns="http://www.w3.org/2000/svg">
<path fill-rule="evenodd" clip-rule="evenodd" d="M24 13.4493L36.7989 26.2483V35.2224C36.7989 36.0711 36.4618 36.8849 35.8617 37.485C35.2617 38.0851 34.4478 38.4222 33.5992 38.4222H14.4008C13.5522 38.4222 12.7383 38.0851 12.1383 37.485C11.5382 36.8849 11.2011 36.0711 11.2011 35.2224V26.2483L24 13.4493ZM34.6658 11.7578V19.2238L30.3995 14.9575V11.7578C30.3995 11.4749 30.5118 11.2036 30.7119 11.0036C30.9119 10.8035 31.1832 10.6912 31.466 10.6912H33.5992C33.8821 10.6912 34.1534 10.8035 34.3534 11.0036C34.5534 11.2036 34.6658 11.4749 34.6658 11.7578Z" fill="black"/>
<path fill-rule="evenodd" clip-rule="evenodd" d="M22.4919 9.62456C22.8919 9.22465 23.4344 9 24 9C24.5656 9 25.1081 9.22465 25.5081 9.62456L39.6872 23.8015C39.8875 24.0018 40 24.2734 40 24.5566C40 24.8399 39.8875 25.1115 39.6872 25.3118C39.4869 25.512 39.2153 25.6246 38.9321 25.6246C38.6488 25.6246 38.3772 25.512 38.1769 25.3118L24 11.1327L9.82306 25.3118C9.62279 25.512 9.35116 25.6246 9.06792 25.6246C8.78469 25.6246 8.51306 25.512 8.31279 25.3118C8.11251 25.1115 8 24.8399 8 24.5566C8 24.2734 8.11251 24.0018 8.31279 23.8015L22.4919 9.62456Z" fill="black"/>
</svg>
