<svg width="49" height="48" viewBox="0 0 49 48" fill="none" xmlns="http://www.w3.org/2000/svg">
<path d="M16.4999 34C15.9333 34 15.4579 33.808 15.0739 33.424C14.6899 33.04 14.4986 32.5653 14.4999 32C14.4999 31.4333 14.6919 30.958 15.0759 30.574C15.4599 30.19 15.9346 29.9987 16.4999 30H32.4999C33.0666 30 33.5419 30.192 33.9259 30.576C34.3099 30.96 34.5013 31.4347 34.4999 32C34.4999 32.5667 34.3079 33.042 33.9239 33.426C33.5399 33.81 33.0653 34.0013 32.4999 34H16.4999ZM8.49995 18C7.93328 18 7.45795 17.808 7.07395 17.424C6.68995 17.04 6.49861 16.5653 6.49995 16C6.49995 15.4333 6.69195 14.958 7.07595 14.574C7.45995 14.19 7.93461 13.9987 8.49995 14C9.06661 14 9.54194 14.192 9.92594 14.576C10.3099 14.96 10.5013 15.4347 10.4999 16C10.4999 16.5667 10.3079 17.042 9.92394 17.426C9.53994 17.81 9.06528 18.0013 8.49995 18ZM16.4999 18C15.9333 18 15.4579 17.808 15.0739 17.424C14.6899 17.04 14.4986 16.5653 14.4999 16C14.4999 15.4333 14.6919 14.958 15.0759 14.574C15.4599 14.19 15.9346 13.9987 16.4999 14C17.0666 14 17.5419 14.192 17.9259 14.576C18.3099 14.96 18.5013 15.4347 18.4999 16C18.4999 16.5667 18.3079 17.042 17.9239 17.426C17.5399 17.81 17.0653 18.0013 16.4999 18ZM24.4999 18C23.9333 18 23.4579 17.808 23.0739 17.424C22.6899 17.04 22.4986 16.5653 22.4999 16C22.4999 15.4333 22.6919 14.958 23.0759 14.574C23.4599 14.19 23.9346 13.9987 24.4999 14C25.0666 14 25.5419 14.192 25.9259 14.576C26.3099 14.96 26.5013 15.4347 26.4999 16C26.4999 16.5667 26.3079 17.042 25.9239 17.426C25.5399 17.81 25.0653 18.0013 24.4999 18ZM32.4999 18C31.9333 18 31.4579 17.808 31.0739 17.424C30.6899 17.04 30.4986 16.5653 30.4999 16C30.4999 15.4333 30.6919 14.958 31.0759 14.574C31.4599 14.19 31.9346 13.9987 32.4999 14C33.0666 14 33.5419 14.192 33.9259 14.576C34.3099 14.96 34.5013 15.4347 34.4999 16C34.4999 16.5667 34.3079 17.042 33.9239 17.426C33.5399 17.81 33.0653 18.0013 32.4999 18ZM40.4999 18C39.9333 18 39.4579 17.808 39.0739 17.424C38.6899 17.04 38.4986 16.5653 38.4999 16C38.4999 15.4333 38.6919 14.958 39.0759 14.574C39.4599 14.19 39.9346 13.9987 40.4999 14C41.0666 14 41.5419 14.192 41.9259 14.576C42.3099 14.96 42.5013 15.4347 42.4999 16C42.4999 16.5667 42.3079 17.042 41.9239 17.426C41.5399 17.81 41.0653 18.0013 40.4999 18ZM40.4999 26C39.9333 26 39.4579 25.808 39.0739 25.424C38.6899 25.04 38.4986 24.5653 38.4999 24C38.4999 23.4333 38.6919 22.958 39.0759 22.574C39.4599 22.19 39.9346 21.9987 40.4999 22C41.0666 22 41.5419 22.192 41.9259 22.576C42.3099 22.96 42.5013 23.4347 42.4999 24C42.4999 24.5667 42.3079 25.042 41.9239 25.426C41.5399 25.81 41.0653 26.0013 40.4999 26ZM32.4999 26C31.9333 26 31.4579 25.808 31.0739 25.424C30.6899 25.04 30.4986 24.5653 30.4999 24C30.4999 23.4333 30.6919 22.958 31.0759 22.574C31.4599 22.19 31.9346 21.9987 32.4999 22C33.0666 22 33.5419 22.192 33.9259 22.576C34.3099 22.96 34.5013 23.4347 34.4999 24C34.4999 24.5667 34.3079 25.042 33.9239 25.426C33.5399 25.81 33.0653 26.0013 32.4999 26ZM24.4999 26C23.9333 26 23.4579 25.808 23.0739 25.424C22.6899 25.04 22.4986 24.5653 22.4999 24C22.4999 23.4333 22.6919 22.958 23.0759 22.574C23.4599 22.19 23.9346 21.9987 24.4999 22C25.0666 22 25.5419 22.192 25.9259 22.576C26.3099 22.96 26.5013 23.4347 26.4999 24C26.4999 24.5667 26.3079 25.042 25.9239 25.426C25.5399 25.81 25.0653 26.0013 24.4999 26ZM16.4999 26C15.9333 26 15.4579 25.808 15.0739 25.424C14.6899 25.04 14.4986 24.5653 14.4999 24C14.4999 23.4333 14.6919 22.958 15.0759 22.574C15.4599 22.19 15.9346 21.9987 16.4999 22C17.0666 22 17.5419 22.192 17.9259 22.576C18.3099 22.96 18.5013 23.4347 18.4999 24C18.4999 24.5667 18.3079 25.042 17.9239 25.426C17.5399 25.81 17.0653 26.0013 16.4999 26ZM8.49995 26C7.93328 26 7.45795 25.808 7.07395 25.424C6.68995 25.04 6.49861 24.5653 6.49995 24C6.49995 23.4333 6.69195 22.958 7.07595 22.574C7.45995 22.19 7.93461 21.9987 8.49995 22C9.06661 22 9.54194 22.192 9.92594 22.576C10.3099 22.96 10.5013 23.4347 10.4999 24C10.4999 24.5667 10.3079 25.042 9.92394 25.426C9.53994 25.81 9.06528 26.0013 8.49995 26Z" fill="black"/>
</svg>
