<svg width="48" height="48" viewBox="0 0 48 48" fill="none" xmlns="http://www.w3.org/2000/svg">
<path d="M17.2407 8.38574C16.569 7.81245 15.7145 7.49829 14.8315 7.50001H11.2C10.2187 7.50001 9.27758 7.88983 8.5837 8.58371C7.88982 9.27759 7.5 10.2187 7.5 11.2V12.8C7.5 20.1464 10.4184 27.192 15.6131 32.3867C20.8078 37.5815 27.8534 40.4999 35.1999 40.4999H36.7999C37.7812 40.4999 38.7223 40.11 39.4161 39.4162C40.11 38.7223 40.4998 37.7812 40.4998 36.7999V33.17C40.508 32.2732 40.1901 31.4039 39.6053 30.7239C39.0199 30.0431 38.2062 29.5984 37.3172 29.4727L30.922 28.5774L30.9195 28.5771C30.2028 28.4701 29.4705 28.576 28.8134 28.8815C28.1556 29.1874 27.6022 29.68 27.222 30.2979L27.2201 30.3011L23.3374 36.72C20.7639 35.4438 18.3897 33.7491 16.3202 31.6796C14.2504 29.6099 12.5556 27.2352 11.2793 24.6613L17.6699 20.7298C18.2879 20.3497 18.7804 19.7963 19.0863 19.1384C19.3919 18.4813 19.4977 17.749 19.3908 17.0323L18.4952 10.6347L18.4939 10.6265C18.357 9.75394 17.9125 8.95914 17.2407 8.38574Z" fill="black"/>
</svg>
