<svg width="49" height="48" viewBox="0 0 49 48" fill="none" xmlns="http://www.w3.org/2000/svg">
<path d="M24.4999 8C25.0304 8 25.5391 8.21071 25.9142 8.58579C26.2892 8.96086 26.4999 9.46957 26.4999 10V22H38.4999C39.0304 22 39.5391 22.2107 39.9142 22.5858C40.2892 22.9609 40.4999 23.4696 40.4999 24C40.4999 24.5304 40.2892 25.0391 39.9142 25.4142C39.5391 25.7893 39.0304 26 38.4999 26H26.4999V38C26.4999 38.5304 26.2892 39.0391 25.9142 39.4142C25.5391 39.7893 25.0304 40 24.4999 40C23.9695 40 23.4608 39.7893 23.0857 39.4142C22.7107 39.0391 22.4999 38.5304 22.4999 38V26H10.4999C9.96951 26 9.4608 25.7893 9.08573 25.4142C8.71065 25.0391 8.49994 24.5304 8.49994 24C8.49994 23.4696 8.71065 22.9609 9.08573 22.5858C9.4608 22.2107 9.96951 22 10.4999 22H22.4999V10C22.4999 9.46957 22.7107 8.96086 23.0857 8.58579C23.4608 8.21071 23.9695 8 24.4999 8Z" fill="black"/>
</svg>
