<svg width="48" height="48" viewBox="0 0 48 48" fill="none" xmlns="http://www.w3.org/2000/svg">
<path d="M24 27C23.4333 27 22.9587 26.808 22.576 26.424C22.192 26.0413 22 25.5667 22 25V9C22 8.43333 22.192 7.958 22.576 7.574C22.9587 7.19133 23.4333 7 24 7C24.5667 7 25.042 7.19133 25.426 7.574C25.8087 7.958 26 8.43333 26 9V25C26 25.5667 25.8087 26.0413 25.426 26.424C25.042 26.808 24.5667 27 24 27ZM24 41C19.5333 41 15.75 39.45 12.65 36.35C9.55 33.25 8 29.4667 8 25C8 22.7333 8.46667 20.5747 9.4 18.524C10.3333 16.4747 11.6833 14.65 13.45 13.05C13.8167 12.6833 14.2667 12.5333 14.8 12.6C15.3333 12.6667 15.7833 12.8833 16.15 13.25C16.55 13.65 16.75 14.1253 16.75 14.676C16.75 15.2253 16.5333 15.6833 16.1 16.05C14.8333 17.1833 13.8333 18.5167 13.1 20.05C12.3667 21.5833 12 23.2333 12 25C12 28.3333 13.1667 31.1667 15.5 33.5C17.8333 35.8333 20.6667 37 24 37C27.3333 37 30.1667 35.8333 32.5 33.5C34.8333 31.1667 36 28.3333 36 25C36 23.2333 35.6333 21.5833 34.9 20.05C34.1667 18.5167 33.1667 17.1833 31.9 16.05C31.4667 15.6833 31.2333 15.2253 31.2 14.676C31.1667 14.1253 31.35 13.65 31.75 13.25C32.1167 12.8833 32.5667 12.65 33.1 12.55C33.6333 12.45 34.0833 12.5833 34.45 12.95C36.25 14.6167 37.6253 16.4747 38.576 18.524C39.5253 20.5747 40 22.7333 40 25C40 29.4667 38.45 33.25 35.35 36.35C32.25 39.45 28.4667 41 24 41Z" fill="black"/>
</svg>
