<svg width="96" height="96" viewBox="0 0 96 96" fill="none" xmlns="http://www.w3.org/2000/svg">
<path fill-rule="evenodd" clip-rule="evenodd" d="M63.6612 77V75.3517C63.6612 75.3517 58.5102 75.4547 57.068 74.3215C55.6257 73.1883 54.6985 71.2309 54.6985 68.2433C54.6985 65.2558 54.6985 58.8686 54.6985 58.8686C54.6985 58.8686 68.4001 57.4263 72.7269 53.0995C77.0537 48.7726 78.29 41.7673 78.29 37.4405C78.29 35.2771 78.3126 29.4623 78.3126 26.4226C78.3126 24.5659 78.6407 21.2602 81.1605 21.2602C82.4134 21.2602 84.3681 21.2664 84.3681 21.2664V19.103C84.3681 19.103 81.6896 19 80.0413 19C78.393 19 74.4267 19.2575 72.4179 21.2664C70.409 23.2753 69.1212 28.7869 69.1212 38.2646C69.1212 47.7424 68.2971 50.3179 65.9276 52.6874C62.3731 56.2419 54.6985 56.4991 54.6985 56.4991C54.6985 56.4991 54.6985 32.5986 54.6985 29.3019C54.6985 26.0053 54.5955 24.254 56.1408 22.7087C57.6861 21.1634 62.8371 21.3694 62.8371 21.3694V19H37.5311V21.3694C37.5311 21.3694 42.682 21.1634 44.2273 22.7087C45.7726 24.254 45.6696 26.0053 45.6696 29.3019C45.6696 32.5986 45.6696 56.4991 45.6696 56.4991C45.6696 56.4991 37.995 56.2419 34.4405 52.6874C32.071 50.3179 31.2469 47.7425 31.2469 38.2647C31.2469 28.7869 29.9591 23.2753 27.9503 21.2664C25.9414 19.2576 21.9751 19 20.3268 19C18.6785 19 16 19.103 16 19.103V21.2664C16 21.2664 17.9547 21.2602 19.2076 21.2602C21.7274 21.2602 22.0555 24.566 22.0555 26.4226C22.0555 29.4623 22.0781 35.2771 22.0781 37.4405C22.0781 41.7673 23.3144 48.7727 27.6412 53.0995C31.968 57.4263 45.6696 58.8686 45.6696 58.8686C45.6696 58.8686 45.6696 65.2558 45.6696 68.2433C45.6696 71.2309 44.7424 73.1883 43.3002 74.3215C41.8579 75.4547 36.7069 75.3517 36.7069 75.3517V77" fill="#2563EB"/>
</svg>
