<svg width="49" height="48" viewBox="0 0 49 48" fill="none" xmlns="http://www.w3.org/2000/svg">
<path fill-rule="evenodd" clip-rule="evenodd" d="M15.7677 17.2213C15.0104 17.2213 14.3971 16.5893 14.5144 15.8427C15.2477 11.3067 18.7037 8 24.7011 8C30.7011 8 34.7464 11.6267 34.7464 16.5733C34.7464 20.1573 32.9731 22.6747 29.9731 24.5013C27.0397 26.2587 26.2024 27.4827 26.2024 29.8613V29.9413C26.2024 30.295 26.0619 30.6341 25.8119 30.8841C25.5618 31.1342 25.2227 31.2747 24.8691 31.2747H22.8157C22.4644 31.2747 22.1273 31.136 21.8776 30.8889C21.6279 30.6417 21.4859 30.306 21.4824 29.9547L21.4744 29.4213C21.3597 26.1653 22.7464 24.0853 25.8611 22.1893C28.6077 20.504 29.5864 19.1627 29.5864 16.7813C29.5864 14.1707 27.5651 12.2533 24.4504 12.2533C21.7597 12.2533 19.8904 13.664 19.2824 15.992C19.1064 16.6693 18.5411 17.2213 17.8424 17.2213H15.7704H15.7677ZM23.8237 40C25.4824 40 26.7437 38.736 26.7437 37.0933C26.7437 35.4453 25.4824 34.1813 23.8237 34.1813C22.2077 34.1813 20.9251 35.4453 20.9251 37.0907C20.9251 38.736 22.2077 40 23.8237 40Z" fill="black"/>
</svg>
