<svg width="49" height="48" viewBox="0 0 49 48" fill="none" xmlns="http://www.w3.org/2000/svg">
<g clip-path="url(#clip0_580_15323)">
<path d="M11.6428 7.6001C10.7032 7.6001 9.80204 7.97336 9.13762 8.63778C8.47321 9.30219 8.09995 10.2033 8.09995 11.143V17.5715H4.89995V11.143C4.89995 9.35464 5.61035 7.63957 6.87488 6.37503C8.13941 5.1105 9.85448 4.4001 11.6428 4.4001H18.0714V7.6001H11.6428Z" fill="black"/>
<path d="M37.3571 7.6001H30.9285V4.4001H37.3571C39.1454 4.4001 40.8605 5.1105 42.125 6.37503C43.3895 7.63957 44.0999 9.35464 44.0999 11.143V17.5715H40.8999V11.143C40.8999 10.2033 40.5267 9.30219 39.8623 8.63778C39.1979 7.97336 38.2967 7.6001 37.3571 7.6001Z" fill="black"/>
<path d="M38.6428 25.6001H10.3571V22.4001H38.6428V25.6001Z" fill="black"/>
<path d="M11.6428 43.6001C9.85448 43.6001 8.13941 42.8897 6.87488 41.6252C5.61035 40.3606 4.89995 38.6456 4.89995 36.8572V30.4287H8.09995V36.8572C8.09995 37.7969 8.47321 38.698 9.13762 39.3624C9.80204 40.0268 10.7032 40.4001 11.6428 40.4001H18.0714V43.6001H11.6428Z" fill="black"/>
<path d="M37.3571 40.4001C38.2967 40.4001 39.1978 40.0268 39.8623 39.3624C40.5267 38.698 40.8999 37.7969 40.8999 36.8572V30.4287H44.0999V36.8572C44.0999 38.6456 43.3895 40.3606 42.125 41.6252C40.8605 42.8897 39.1454 43.6001 37.3571 43.6001H30.9285V40.4001H37.3571Z" fill="black"/>
</g>
<defs>
<clipPath id="clip0_580_15323">
<rect width="48" height="48" fill="white" transform="translate(0.499939)"/>
</clipPath>
</defs>
</svg>
