<svg width="49" height="48" viewBox="0 0 49 48" fill="none" xmlns="http://www.w3.org/2000/svg">
<path d="M9.34205 30.6316C10.3885 30.6316 11.2368 31.4799 11.2368 32.5263V36.3158C11.2368 36.8183 11.4364 37.3002 11.7917 37.6556C12.1471 38.0109 12.629 38.2105 13.1315 38.2105H35.8684C36.3709 38.2105 36.8528 38.0109 37.2081 37.6556C37.5635 37.3002 37.7631 36.8183 37.7631 36.3158V32.5263C37.7631 31.4799 38.6114 30.6316 39.6578 30.6316C40.7043 30.6316 41.5526 31.4799 41.5526 32.5263V36.3158C41.5526 37.8233 40.9537 39.2692 39.8877 40.3351C38.8217 41.4011 37.3759 42 35.8684 42H13.1315C11.624 42 10.1782 41.4011 9.11218 40.3351C8.04618 39.2691 7.44731 37.8233 7.44731 36.3158V32.5263C7.44731 31.4799 8.29561 30.6316 9.34205 30.6316Z" fill="black"/>
<path d="M24.4999 32.5082C23.4535 32.5082 22.6052 31.6599 22.6052 30.6134L22.6052 12.4509L16.366 18.6901C15.6261 19.43 14.4264 19.43 13.6865 18.6901C12.9465 17.9501 12.9465 16.7504 13.6865 16.0105L23.1602 6.53682C23.9001 5.79688 25.0998 5.79688 25.8397 6.53682L35.3134 16.0105C36.0533 16.7504 36.0533 17.9501 35.3134 18.6901C34.5735 19.43 33.3738 19.43 32.6338 18.6901L26.3947 12.4509L26.3947 30.6134C26.3947 31.6599 25.5464 32.5082 24.4999 32.5082Z" fill="black"/>
</svg>
