<svg width="49" height="48" viewBox="0 0 49 48" fill="none" xmlns="http://www.w3.org/2000/svg">
<path d="M10.2216 22.7829H20.5519C21.0085 22.7829 21.4464 22.6015 21.7693 22.2787C22.0922 21.9558 22.2736 21.5178 22.2736 21.0612V10.731C22.2736 10.2743 22.0922 9.83643 21.7693 9.51354C21.4464 9.19066 21.0085 9.00927 20.5519 9.00927H10.2216C9.76502 9.00927 9.3271 9.19066 9.00422 9.51354C8.68133 9.83643 8.49994 10.2743 8.49994 10.731V21.0612C8.49994 21.5178 8.68133 21.9558 9.00422 22.2787C9.3271 22.6015 9.76502 22.7829 10.2216 22.7829ZM10.2216 40H20.5519C21.0085 40 21.4464 39.8186 21.7693 39.4957C22.0922 39.1728 22.2736 38.7349 22.2736 38.2783V27.948C22.2736 27.4914 22.0922 27.0535 21.7693 26.7306C21.4464 26.4077 21.0085 26.2263 20.5519 26.2263H10.2216C9.76502 26.2263 9.3271 26.4077 9.00422 26.7306C8.68133 27.0535 8.49994 27.4914 8.49994 27.948V38.2783C8.49994 38.7349 8.68133 39.1728 9.00422 39.4957C9.3271 39.8186 9.76502 40 10.2216 40ZM27.4387 40H37.769C38.2256 40 38.6635 39.8186 38.9864 39.4957C39.3093 39.1728 39.4907 38.7349 39.4907 38.2783V27.948C39.4907 27.4914 39.3093 27.0535 38.9864 26.7306C38.6635 26.4077 38.2256 26.2263 37.769 26.2263H27.4387C26.9821 26.2263 26.5442 26.4077 26.2213 26.7306C25.8984 27.0535 25.717 27.4914 25.717 27.948V38.2783C25.717 38.7349 25.8984 39.1728 26.2213 39.4957C26.5442 39.8186 26.9821 40 27.4387 40ZM39.9951 14.6789L33.8211 8.50481C33.6613 8.34478 33.4716 8.21783 33.2627 8.13121C33.0539 8.04459 32.83 8 32.6038 8C32.3777 8 32.1538 8.04459 31.945 8.13121C31.7361 8.21783 31.5463 8.34478 31.3866 8.50481L25.2126 14.6789C25.0525 14.8386 24.9256 15.0283 24.839 15.2372C24.7523 15.4461 24.7077 15.67 24.7077 15.8961C24.7077 16.1222 24.7523 16.3461 24.839 16.555C24.9256 16.7639 25.0525 16.9536 25.2126 17.1133L31.3866 23.2874C31.5463 23.4474 31.7361 23.5744 31.945 23.661C32.1538 23.7476 32.3777 23.7922 32.6038 23.7922C32.83 23.7922 33.0539 23.7476 33.2627 23.661C33.4716 23.5744 33.6613 23.4474 33.8211 23.2874L39.9951 17.1133C40.1552 16.9536 40.2821 16.7639 40.3687 16.555C40.4554 16.3461 40.4999 16.1222 40.4999 15.8961C40.4999 15.67 40.4554 15.4461 40.3687 15.2372C40.2821 15.0283 40.1552 14.8386 39.9951 14.6789Z" fill="black"/>
</svg>
